<svg xmlns="http://www.w3.org/2000/svg" width="273" height="90" fill="currentColor" viewBox="0 0 273 90">
  <path d="m14.88 68.88-.896-19.712L60.96.4h18.688l-39.04 41.472-9.216 10.112L14.88 68.88ZM.032 90V.4h16.64V90H.032Zm62.464 0L28.192 49.168 39.2 37.008 81.952 90H62.496Zm14.364 0L117.18.4h16.384L174.012 90h-17.408L121.916 9.232h6.656L94.012 90H76.86Zm18.56-20.736 4.48-13.056h48.384l4.48 13.056H95.42ZM174.985 90 215.305.4h16.384L272.137 90h-17.408L220.041 9.232h6.656L192.137 90h-17.152Zm18.56-20.736 4.48-13.056h48.384l4.48 13.056h-57.344Z"/>
</svg>
